<svg xmlns="http://www.w3.org/2000/svg" viewBox="0 0 192 192">
    <path fill="#9333EA" d="M0 0h192v192H0z"/>
    <path fill="#FFF" d="M55.056 105.973c1.758.628 3.343 1.075 4.756 1.342 1.413.267 2.842.4 4.286.4 4.238 0 6.358-1.208 6.358-3.626 0-.942-.283-1.719-.848-2.33-.565-.613-1.272-1.084-2.12-1.414-.847-.33-2.04-.714-3.579-1.154-2.04-.565-3.712-1.138-5.015-1.719-1.303-.58-2.41-1.49-3.32-2.731-.91-1.24-1.366-2.896-1.366-4.968 0-3.234 1.052-5.754 3.155-7.56 2.104-1.804 5.008-2.707 8.713-2.707 1.538 0 3.108.165 4.71.494 1.6.33 3.107.793 4.52 1.39v5.98c-3.422-1.412-6.467-2.118-9.136-2.118-3.642 0-5.463 1.287-5.463 3.861 0 1.068.298 1.923.895 2.567.596.644 1.334 1.138 2.213 1.483.88.346 2.088.707 3.627 1.084 2.009.533 3.641 1.075 4.897 1.624 1.256.55 2.331 1.437 3.226 2.661.895 1.225 1.342 2.873 1.342 4.945 0 3.202-1.098 5.66-3.296 7.37-2.198 1.711-5.275 2.567-9.23 2.567-2.983 0-6.091-.455-9.325-1.366v-6.075zm53.593-25.996c-.879 5.431-2.135 11.051-3.767 16.86-1.633 5.808-3.485 11.177-5.558 16.106h-7.252c-2.04-4.866-3.878-10.196-5.51-15.989-1.633-5.792-2.904-11.451-3.815-16.977h6.5c.815 5.086 1.718 9.733 2.707 13.94.99 4.207 2.237 8.634 3.744 13.28 1.507-4.646 2.755-9.073 3.744-13.28.99-4.207 1.892-8.854 2.708-13.94h6.5zm17.284 15.682h12.621v13.516c-1.538 1.256-3.43 2.277-5.675 3.062a21.177 21.177 0 0 1-7.04 1.177c-4.176 0-7.394-1.397-9.655-4.191-2.26-2.795-3.39-6.704-3.39-11.727 0-3.736.62-6.954 1.86-9.654 1.24-2.7 2.998-4.765 5.274-6.193 2.276-1.429 4.953-2.143 8.03-2.143 1.6 0 3.124.173 4.568.518 1.444.345 3.014.848 4.71 1.507v5.981c-3.486-1.507-6.735-2.26-9.75-2.26-1.946 0-3.516.368-4.709 1.106-1.193.738-2.064 1.923-2.613 3.556-.55 1.632-.825 3.814-.825 6.546 0 2.794.22 5 .66 6.617.44 1.617 1.177 2.786 2.213 3.508s2.45 1.083 4.239 1.083c1.978 0 4.018-.392 6.122-1.177v-5.557h-6.64v-5.275z"/>
</svg>
